Coordinates
version=1
nRows=10
nColumns=34
inDegrees=yes

Units are S.I. units (second, meters, Newtons, ...)
Angles are in degrees.

endheader
time	pelvis_tilt	pelvis_list	pelvis_rotation	pelvis_tx	pelvis_ty	pelvis_tz	hip_flexion_r	hip_adduction_r	hip_rotation_r	knee_angle_r	ankle_angle_r	subtalar_angle_r	mtp_angle_r	hip_flexion_l	hip_adduction_l	hip_rotation_l	knee_angle_l	socket_flexion	socket_adduction	socket_rotation	socket_tx	socket_ty	socket_tz	pros_ankle_rx	pros_ankle_ry	pros_ankle_rz	pros_ankle_tx	pros_ankle_ty	pros_ankle_tz	foot_flex	lumbar_extension	lumbar_bending	lumbar_rotation
      0.29583333	      2.46790926	     -3.67546801	      0.32821564	     -0.36371092	      1.05218562	      0.37080020	      7.80499963	     -0.24275647	     -9.74817667	    -61.86270405	     -0.41251503	      5.60159554	     15.29079836	      8.44438456	     -3.18723868	      0.99116146	    -20.06642510	      0.97894114	      0.00000000	      0.00000000	      0.00000000	      0.00000000	      0.00000000	      0.00000000	      0.00000000	      0.00000000	      0.00000000	      0.00000000	      0.00000000	      5.98510277	    -23.25873753	     -7.35102739	      0.84266703
      0.30000000	      2.56988185	     -3.79554225	      0.38804695	     -0.35817721	      1.05307914	      0.37052497	      8.21750541	     -0.12529945	     -9.86522920	    -61.65346408	      0.47187596	      5.73094852	     15.36423143	      7.85144359	     -3.30305156	      1.02727453	    -19.74386983	      1.06087013	      0.00000000	      0.00000000	      0.00000000	      0.00000000	      0.00000000	      0.00000000	      0.00000000	      0.00000000	      0.00000000	      0.00000000	      0.00000000	      6.14518172	    -23.29649497	     -7.15582026	      0.72638825
      0.30416667	      2.65322698	     -3.92662700	      0.43543170	     -0.35263650	      1.05394767	      0.37025664	      8.63050502	     -0.01693202	    -10.01532425	    -61.36061429	      1.24214039	      5.83436760	     15.42037007	      7.28952706	     -3.43341292	      1.04410474	    -19.46090720	      1.12715330	      0.00000000	      0.00000000	      0.00000000	      0.00000000	      0.00000000	      0.00000000	      0.00000000	      0.00000000	      0.00000000	      0.00000000	      0.00000000	      6.30931061	    -23.32741460	     -6.96330934	      0.64069974
      0.30833333	      3.11722331	     -3.78087891	      0.40252455	     -0.34665619	      1.05568526	      0.37012137	      8.56045059	     -0.28044356	    -10.16143149	    -61.00567100	      2.23187925	      6.73392267	     15.27284292	      5.77383965	     -3.27373048	      1.01568063	    -17.77020901	      2.01909325	      0.00000000	      0.00000000	      0.00000000	      0.00000000	      0.00000000	      0.00000000	      0.00000000	      0.00000000	      0.00000000	      0.00000000	      0.00000000	      6.45669034	    -23.77140140	     -7.08748550	      0.40080036
      0.31250000	      3.17568629	     -3.96807447	      0.44104954	     -0.34123979	      1.05648570	      0.36987125	      8.97622398	     -0.05106163	    -10.24202017	    -60.58144540	      2.94079943	      6.62888297	     15.30881430	      5.27777466	     -3.46606129	      1.03688332	    -17.57591248	      2.03302506	      0.00000000	      0.00000000	      0.00000000	      0.00000000	      0.00000000	      0.00000000	      0.00000000	      0.00000000	      0.00000000	      0.00000000	      0.00000000	      6.61149138	    -23.77826444	     -6.80221159	      0.41181102
      0.31666667	      3.22096319	     -4.15199713	      0.49590649	     -0.33576398	      1.05723432	      0.36960313	      9.39875914	      0.14422300	    -10.39102172	    -60.13557808	      3.57746664	      6.62311585	     15.33493522	      4.79291980	     -3.65633015	      1.02966881	    -17.37022224	      2.04297832	      0.00000000	      0.00000000	      0.00000000	      0.00000000	      0.00000000	      0.00000000	      0.00000000	      0.00000000	      0.00000000	      0.00000000	      0.00000000	      6.75245585	    -23.76679999	     -6.58125833	      0.37882333
      0.32083333	      3.27054129	     -4.32637676	      0.55153776	     -0.33034745	      1.05799511	      0.36935810	      9.79875766	      0.34296479	    -10.52100485	    -59.62855957	      4.26005976	      6.68161413	     15.34925035	      4.28514164	     -3.83823401	      1.06724558	    -17.10109528	      2.09314385	      0.00000000	      0.00000000	      0.00000000	      0.00000000	      0.00000000	      0.00000000	      0.00000000	      0.00000000	      0.00000000	      0.00000000	      0.00000000	      6.87625137	    -23.75957707	     -6.30488425	      0.32928230
      0.32500000	      3.34074995	     -4.50802234	      0.60850395	     -0.32491414	      1.05878911	      0.36907097	     10.15484343	      0.54496488	    -10.65711539	    -59.06341950	      4.96573198	      6.82241550	     15.33038525	      3.71746020	     -4.02339763	      1.12884040	    -16.72085125	      2.21623461	      0.00000000	      0.00000000	      0.00000000	      0.00000000	      0.00000000	      0.00000000	      0.00000000	      0.00000000	      0.00000000	      0.00000000	      0.00000000	      7.01268558	    -23.75073221	     -5.99144949	      0.25674471
      0.32916667	      4.02408495	     -4.37688471	      0.49736435	     -0.31876405	      1.06090910	      0.36910606	      9.72524633	      0.33243232	    -10.76307772	    -58.37425083	      5.76063580	      7.57996292	     14.47709131	      1.64830271	     -3.89489630	      0.99186521	    -14.19385970	      3.62315660	      0.00000000	      0.00000000	      0.00000000	      0.00000000	      0.00000000	      0.00000000	      0.00000000	      0.00000000	      0.00000000	      0.00000000	      0.00000000	      7.16013178	    -24.47178518	     -6.12890749	      0.16166074
      0.33333333	      4.03081114	     -4.41481359	      0.48562267	     -0.31359987	      1.06135884	      0.36892977	     10.22178974	      0.34515195	    -10.87632746	    -57.87419127	      5.91410413	      7.56091356	     14.47710965	      1.27941975	     -3.91703210	      0.98234017	    -14.20085430	      3.47681545	      0.00000000	      0.00000000	      0.00000000	      0.00000000	      0.00000000	      0.00000000	      0.00000000	      0.00000000	      0.00000000	      0.00000000	      0.00000000	      7.23190535	    -24.51449124	     -6.09861653	      0.15996322
